# xmcd CD database file
#
# Track frame offsets:
#	150
#	7387
#	46982
#	123487
#	162842
#	213227
#	271905
#
# Disc length: 4249 seconds
#
# Revision: 0
# Processed by: cddbd v1.5.1PL0 Copyright (c) Steve Scherf et al.
# Submitted via: CDex 1.51
#
DISCID=5e109707
DTITLE=渋さ知らズ - 渋祭
DYEAR=1997
DGENRE=Jazz
TTITLE0=月への旅一座
TTITLE1=P-chan
TTITLE2=ライオン
TTITLE3=レイジのテーマ
TTITLE4=バルタザール
TTITLE5=反町鬼郎
TTITLE6=●
EXTD=YEAR: 1997
EXTT0=
EXTT1=
EXTT2=
EXTT3=
EXTT4=
EXTT5=
EXTT6=
PLAYORDER=
